<?xml version="1.0" encoding="UTF-8" standalone="no"?>
<svg
   xmlns:dc="http://purl.org/dc/elements/1.1/"
   xmlns:cc="http://creativecommons.org/ns#"
   xmlns:rdf="http://www.w3.org/1999/02/22-rdf-syntax-ns#"
   xmlns:svg="http://www.w3.org/2000/svg"
   xmlns="http://www.w3.org/2000/svg"
   xmlns:sodipodi="http://sodipodi.sourceforge.net/DTD/sodipodi-0.dtd"
   xmlns:inkscape="http://www.inkscape.org/namespaces/inkscape"
   version="1.1"
   width="280"
   height="100"
   viewBox="0 0 280 100"
   overflow="visible"
   enable-background="new 0 0 266 100"
   xml:space="preserve"
   id="svg2"
   sodipodi:version="0.32"
   inkscape:version="0.92.3 (2405546, 2018-03-11)"
   sodipodi:docname="facebook-logo.svg"
   inkscape:output_extension="org.inkscape.output.svg.inkscape"
   style="overflow:visible"><metadata
   id="metadata17"><rdf:RDF><cc:Work
       rdf:about=""><dc:format>image/svg+xml</dc:format><dc:type
         rdf:resource="http://purl.org/dc/dcmitype/StillImage" /><dc:title></dc:title></cc:Work></rdf:RDF></metadata><defs
   id="defs15"><inkscape:perspective
     sodipodi:type="inkscape:persp3d"
     inkscape:vp_x="0 : 50.000001 : 1"
     inkscape:vp_y="0 : 1000 : 0"
     inkscape:vp_z="265.99999 : 50.000001 : 1"
     inkscape:persp3d-origin="132.99999 : 33.333334 : 1"
     id="perspective19" /></defs><sodipodi:namedview
   inkscape:window-height="1017"
   inkscape:window-width="1920"
   inkscape:pageshadow="2"
   inkscape:pageopacity="0.0"
   guidetolerance="10.0"
   gridtolerance="10.0"
   objecttolerance="10.0"
   borderopacity="1.0"
   bordercolor="#666666"
   pagecolor="#ffffff"
   id="base"
   showgrid="false"
   inkscape:zoom="4.0902256"
   inkscape:cx="194.59684"
   inkscape:cy="77.374145"
   inkscape:window-x="1912"
   inkscape:window-y="-8"
   inkscape:current-layer="g8"
   units="mm"
   inkscape:window-maximized="1" />
	<g
   id="g4"
   style="fill:none"><rect
     width="266"
     height="100"
     id="rect6"
     style="fill:none"
     x="0"
     y="0" /></g>
	<g
   id="g8">
		<path
   d="m 149.08062,49.224548 c -2.30741,0 -3.97072,0.756508 -5.65676,1.52754 V 68.19283 c 1.61532,0.154079 2.54106,0.154079 4.07429,0.154079 5.53805,0 6.29708,-2.536008 6.29708,-6.077326 v -8.330434 c 0,-2.614312 -0.86765,-4.7146 -4.71461,-4.714601 z m -36.77779,-0.951636 c -3.84191,0 -4.71966,2.109761 -4.71966,4.721548 v 1.46755 h 9.43363 v -1.46755 c 0,-2.611787 -0.87649,-4.721548 -4.71397,-4.721548 z M 41.057157,66.427221 c 0,2.06619 0.975,3.139699 3.12707,3.139699 2.308677,0 3.675192,-0.752719 5.35997,-1.525646 v -4.137431 h -5.04802 c -2.388875,0 -3.43902,0.444559 -3.43902,2.523378 z M 184.85628,49.224548 c -3.84822,0 -5.1819,2.100288 -5.1819,4.7146 v 9.542868 c 0,2.621888 1.33368,4.728493 5.1819,4.728493 3.8381,0 5.1819,-2.106605 5.1819,-4.728493 v -9.542868 c 0,-2.614312 -1.3438,-4.7146 -5.1819,-4.7146 z M 22.196858,77.126954 H 10.883963 V 49.742989 H 5.2303569 V 40.30684 h 5.6536061 v -5.665605 c 0,-7.698325 3.190849,-12.275896 12.258848,-12.275896 h 7.549928 v 9.438044 h -4.719021 c -3.530583,0 -3.762967,1.318521 -3.762967,3.780016 l -0.0139,4.723441 h 8.548925 l -1.000258,9.436149 h -7.548667 v 27.383965 z m 38.664656,0.07072 H 51.432943 L 51.024378,74.81322 c -4.305405,2.384454 -8.147937,2.770919 -10.682683,2.770919 -6.914663,0 -10.596171,-4.61988 -10.596171,-11.007893 0,-7.5373 4.294671,-10.227388 11.978472,-10.227388 h 7.820201 v -1.62921 c 0,-3.84632 -0.44077,-4.976662 -6.35707,-4.976662 h -9.673583 l 0.945951,-9.436149 h 10.574068 c 12.981887,0 15.827951,4.100806 15.827951,14.488589 z M 92.925347,50.435086 c -5.867675,-1.00531 -7.552456,-1.226326 -10.375789,-1.226326 -5.071379,0 -6.603973,1.118975 -6.603973,5.425013 v 8.146041 c 0,4.306669 1.532594,5.430695 6.603973,5.430695 2.823333,0 4.508114,-0.224804 10.375789,-1.235165 v 9.204394 c -5.139584,1.151814 -8.487672,1.454922 -11.317948,1.454922 -12.146442,0 -16.974709,-6.388013 -16.974709,-15.615143 v -6.610292 c 0,-9.23534 4.828267,-15.634088 16.974709,-15.634088 2.830276,0 6.178364,0.304372 11.317948,1.461237 z m 35.404333,11.584431 h -20.74651 v 0.760297 c 0,4.306669 1.53386,5.430695 6.60398,5.430695 4.55799,0 7.33965,-0.224804 13.1966,-1.235165 v 9.204394 c -5.64857,1.151814 -8.59188,1.454922 -14.13435,1.454922 -12.14707,0 -16.977859,-6.388013 -16.977859,-15.615143 V 54.46201 c 0,-8.073423 3.584252,-14.686873 16.031289,-14.686873 12.44702,0 16.02685,6.53641 16.02685,14.686873 z m 36.77655,0.174288 c 0,8.918969 -2.54863,15.423174 -17.99075,15.423174 -5.57593,0 -8.84699,-0.490025 -15.00135,-1.437241 V 25.198772 l 11.30973,-1.887483 v 17.832889 c 2.44382,-0.908063 5.60751,-1.369041 8.48704,-1.369041 11.31101,0 13.19533,5.070754 13.19533,13.219324 z m 36.25431,0.194495 c 0,7.693905 -3.17633,15.155428 -16.46637,15.155428 -13.29636,0 -16.53206,-7.461523 -16.53206,-15.155428 v -7.428687 c 0,-7.697694 3.2357,-15.160479 16.53206,-15.160479 13.29004,0 16.46637,7.462785 16.46637,15.160479 z m 36.22905,0 c 0,7.693905 -3.1801,15.155428 -16.46764,15.155428 -13.29636,0 -16.53204,-7.461523 -16.53204,-15.155428 v -7.428687 c 0,-7.697694 3.23568,-15.160479 16.53204,-15.160479 13.28754,0 16.46764,7.462785 16.46764,15.160479 z m 37.18005,14.738654 H 262.51017 L 252.1426,59.819453 V 77.126954 H 240.82906 V 25.198772 L 252.1426,23.311289 V 56.740376 L 262.51017,40.30684 h 12.25947 L 263.45107,58.240764 Z M 221.08408,49.224548 c -3.84191,0 -5.17559,2.100288 -5.17559,4.7146 v 9.542868 c 0,2.621888 1.33368,4.728493 5.17559,4.728493 3.83684,0 5.19452,-2.106605 5.19452,-4.728493 v -9.542868 c 0,-2.614312 -1.35768,-4.7146 -5.19452,-4.7146 z"
   id="path10"
   style="fill:#3b5998;fill-opacity:1;stroke-width:1.29326332"
   inkscape:connector-curvature="0" />
		
	</g>
</svg>