<?xml version="1.0" encoding="UTF-8" standalone="no"?>
<!-- Created with Inkscape (http://www.inkscape.org/) -->

<svg
   xmlns:dc="http://purl.org/dc/elements/1.1/"
   xmlns:cc="http://creativecommons.org/ns#"
   xmlns:rdf="http://www.w3.org/1999/02/22-rdf-syntax-ns#"
   xmlns:svg="http://www.w3.org/2000/svg"
   xmlns="http://www.w3.org/2000/svg"
   xmlns:xlink="http://www.w3.org/1999/xlink"
   xmlns:sodipodi="http://sodipodi.sourceforge.net/DTD/sodipodi-0.dtd"
   xmlns:inkscape="http://www.inkscape.org/namespaces/inkscape"
   width="256px"
   height="256px"
   viewBox="0 0 256 256"
   version="1.1"
   id="SVGRoot"
   inkscape:version="0.92.3 (2405546, 2018-03-11)"
   sodipodi:docname="Summit Logo.svg">
  <sodipodi:namedview
     id="base"
     pagecolor="#ffffff"
     bordercolor="#666666"
     borderopacity="1.0"
     inkscape:pageopacity="0"
     inkscape:pageshadow="2"
     inkscape:zoom="2.8284271"
     inkscape:cx="127.64521"
     inkscape:cy="133.51654"
     inkscape:document-units="px"
     inkscape:current-layer="layer1"
     showgrid="false"
     inkscape:window-width="1920"
     inkscape:window-height="1017"
     inkscape:window-x="1912"
     inkscape:window-y="-8"
     inkscape:window-maximized="1"
     inkscape:grid-bbox="true" />
  <defs
     id="defs10">
    <linearGradient
       inkscape:collect="always"
       id="linearGradient868">
      <stop
         style="stop-color:#115b63;stop-opacity:1;"
         offset="0"
         id="stop864" />
      <stop
         style="stop-color:#115b63;stop-opacity:0;"
         offset="1"
         id="stop866" />
    </linearGradient>
    <linearGradient
       inkscape:collect="always"
       id="linearGradient860">
      <stop
         style="stop-color:#115b63;stop-opacity:1;"
         offset="0"
         id="stop856" />
      <stop
         style="stop-color:#115b63;stop-opacity:0;"
         offset="1"
         id="stop858" />
    </linearGradient>
    <linearGradient
       inkscape:collect="always"
       id="linearGradient852">
      <stop
         style="stop-color:#115b63;stop-opacity:1;"
         offset="0"
         id="stop848" />
      <stop
         style="stop-color:#115b63;stop-opacity:0;"
         offset="1"
         id="stop850" />
    </linearGradient>
    <linearGradient
       inkscape:collect="always"
       id="linearGradient4562">
      <stop
         style="stop-color:#000000;stop-opacity:1;"
         offset="0"
         id="stop4558" />
      <stop
         style="stop-color:#000000;stop-opacity:0;"
         offset="1"
         id="stop4560" />
    </linearGradient>
    <inkscape:perspective
       sodipodi:type="inkscape:persp3d"
       inkscape:vp_x="0 : 128 : 1"
       inkscape:vp_y="0 : 1000 : 0"
       inkscape:vp_z="256 : 128 : 1"
       inkscape:persp3d-origin="128 : 85.333333 : 1"
       id="perspective3737" />
    <linearGradient
       inkscape:collect="always"
       xlink:href="#linearGradient4562"
       id="linearGradient4564"
       x1="24.556239"
       y1="128"
       x2="231.44376"
       y2="128"
       gradientUnits="userSpaceOnUse" />
    <linearGradient
       inkscape:collect="always"
       xlink:href="#linearGradient852"
       id="linearGradient854"
       x1="211.5"
       y1="21.5"
       x2="43.75"
       y2="92.25"
       gradientUnits="userSpaceOnUse" />
    <linearGradient
       inkscape:collect="always"
       xlink:href="#linearGradient860"
       id="linearGradient862"
       x1="42.685547"
       y1="44.902344"
       x2="236.35938"
       y2="212.90234"
       gradientUnits="userSpaceOnUse" />
    <linearGradient
       inkscape:collect="always"
       xlink:href="#linearGradient868"
       id="linearGradient870"
       x1="204.89062"
       y1="172.40039"
       x2="19.585556"
       y2="251.90039"
       gradientUnits="userSpaceOnUse" />
  </defs>
  <metadata
     id="metadata13">
    <rdf:RDF>
      <cc:Work
         rdf:about="">
        <dc:format>image/svg+xml</dc:format>
        <dc:type
           rdf:resource="http://purl.org/dc/dcmitype/StillImage" />
        <dc:title></dc:title>
      </cc:Work>
    </rdf:RDF>
  </metadata>
  <g
     id="layer1"
     inkscape:groupmode="layer"
     inkscape:label="Layer 1">
    <text
       xml:space="preserve"
       style="font-style:normal;font-variant:normal;font-weight:normal;font-stretch:normal;font-size:96px;line-height:1.25;font-family:Bahnschrift;-inkscape-font-specification:Bahnschrift;letter-spacing:0px;word-spacing:0px;fill:#000000;fill-opacity:1;stroke:none;"
       x="66"
       y="118"
       id="text28"><tspan
         sodipodi:role="line"
         id="tspan26"
         x="66"
         y="154.75781" /></text>
    <g
       aria-label="s"
       style="font-style:normal;font-variant:normal;font-weight:bold;font-stretch:normal;font-size:99.51747894px;line-height:1.25;font-family:Bahnschrift;-inkscape-font-specification:'Bahnschrift Bold';letter-spacing:0px;word-spacing:0px;fill:#000000;fill-opacity:1;stroke:none;stroke-width:2.48793721"
       id="text32"
       transform="translate(1.5e-6,-5.95e-6)">
      <path
         style="font-style:normal;font-variant:normal;font-weight:bold;font-stretch:normal;font-size:477.68392944px;font-family:Bahnschrift;-inkscape-font-specification:'Bahnschrift Bold';fill:#000000;fill-opacity:1;stroke-width:2.48793721"
         d="M 190.68164 242.17969 C 189.52527 242.67179 188.41808 243.1895 187.21875 243.6582 C 187.63821 243.49666 188.11242 243.38862 188.52734 243.22266 C 189.29127 242.90945 189.93573 242.50641 190.68164 242.17969 z "
         id="path5080"
         transform="translate(-1.5e-6,5.95e-6)" />
      <path
         style="font-style:normal;font-variant:normal;font-weight:bold;font-stretch:normal;font-size:477.68392944px;font-family:Bahnschrift;-inkscape-font-specification:'Bahnschrift Bold';fill:#000000;fill-opacity:1;stroke-width:2.48793721"
         d="M 191.29102 241.88477 C 189.84779 242.50831 188.4507 243.15551 186.93945 243.74219 C 186.78585 243.80182 186.61522 243.85092 186.46094 243.91016 C 186.70534 243.8181 186.97586 243.75174 187.21875 243.6582 C 188.41808 243.1895 189.52527 242.67179 190.68164 242.17969 C 190.89262 242.08728 191.08148 241.97826 191.29102 241.88477 z "
         id="path5078"
         transform="translate(-1.5e-6,5.95e-6)" />
      <path
         style="font-style:normal;font-variant:normal;font-weight:bold;font-stretch:normal;font-size:477.68392944px;font-family:Bahnschrift;-inkscape-font-specification:'Bahnschrift Bold';fill:url(#linearGradient870);fill-opacity:1;stroke-width:2.48793721"
         d="M 225.11523 213.68164 C 225.70288 212.29649 226.24818 210.90435 226.59766 209.48242 C 227.02044 207.76227 227.2647 206.01614 227.32227 204.25 C 227.37983 202.48386 227.2501 200.73974 226.93945 199.01953 C 226.62881 197.29932 226.13773 195.60318 225.47656 193.9375 C 224.8154 192.27182 223.98423 190.63576 222.99023 189.0332 C 221.99624 187.43065 220.84039 185.86286 219.53125 184.33203 C 218.22211 182.8012 216.75894 181.30794 215.15234 179.85742 C 213.54575 178.40691 211.79456 176.99832 209.9082 175.63672 C 208.02185 174.27512 205.99999 172.96135 203.85156 171.69727 C 201.70313 170.43318 199.42797 169.21852 197.03516 168.06055 C 194.64234 166.90257 192.13304 165.80107 189.51367 164.75781 C 186.8943 163.71455 184.1661 162.73051 181.33789 161.81055 C 178.50968 160.89058 175.58183 160.03418 172.5625 159.24609 C 169.54317 158.45801 166.43101 157.73747 163.23828 157.08984 C 162.60356 156.96109 161.92826 156.87104 161.28711 156.74805 C 166.40332 157.86944 170.72 159.66818 174.06641 162.28711 C 177.64282 165.08604 179.42969 169.20607 179.42969 174.64844 C 179.42969 180.55728 175.30965 185.22166 167.06836 188.64258 C 158.82707 191.908 147.24207 193.54102 132.31445 193.54102 C 120.80774 193.54102 108.68036 191.51946 95.929688 187.47656 C 83.17901 183.43366 70.972752 177.6806 59.310547 170.2168 L 19.890625 219.43164 C 29.064893 226.42897 39.640084 232.41475 51.613281 237.39062 C 63.586479 242.3665 76.414002 246.17688 90.097656 248.82031 C 103.78131 251.30825 117.85331 252.55273 132.31445 252.55273 C 153.3156 252.55273 171.3092 249.6169 186.46094 243.91016 C 186.61522 243.85092 186.78585 243.80182 186.93945 243.74219 C 188.4507 243.15551 189.84779 242.50831 191.29102 241.88477 C 205.41986 235.58066 216.40428 226.91781 223.98047 215.69922 C 224.41285 215.05896 224.70597 214.33568 225.11523 213.68164 z "
         id="path5076"
         transform="translate(-1.5e-6,5.95e-6)" />
      <path
         style="font-style:normal;font-variant:normal;font-weight:bold;font-stretch:normal;font-size:477.68392944px;font-family:Bahnschrift;-inkscape-font-specification:'Bahnschrift Bold';fill:#000000;fill-opacity:1;stroke-width:2.48793721"
         d="M 225.21094 213.51367 C 225.76461 212.18452 226.2959 210.85122 226.63086 209.48828 C 227.05409 207.76616 227.29783 206.0184 227.35547 204.25 C 227.41311 202.48159 227.28363 200.73585 226.97266 199.01367 C 226.66169 197.29149 226.16962 195.59315 225.50781 193.92578 C 224.84601 192.25841 224.01439 190.62156 223.01953 189.01758 C 222.02467 187.4136 220.86678 185.84256 219.55664 184.31055 C 218.2465 182.77854 216.78343 181.28544 215.17578 179.83398 C 213.56813 178.38253 211.81707 176.97365 209.92969 175.61133 C 208.04231 174.249 206.01848 172.93258 203.86914 171.66797 C 201.71981 170.40336 199.4443 169.18957 197.05078 168.03125 C 194.65726 166.87293 192.14541 165.77006 189.52539 164.72656 C 186.90537 163.68306 184.17647 162.69942 181.34766 161.7793 C 178.51884 160.85918 175.59021 160.00302 172.57031 159.21484 C 169.55041 158.42667 166.43937 157.70626 163.24609 157.05859 C 162.52315 156.91196 161.75471 156.80713 161.02344 156.66797 C 161.11856 156.68817 161.19259 156.72733 161.28711 156.74805 C 161.92826 156.87104 162.60356 156.96109 163.23828 157.08984 C 166.43101 157.73747 169.54317 158.45801 172.5625 159.24609 C 175.58183 160.03418 178.50968 160.89058 181.33789 161.81055 C 184.1661 162.73051 186.8943 163.71455 189.51367 164.75781 C 192.13304 165.80107 194.64234 166.90257 197.03516 168.06055 C 199.42797 169.21852 201.70313 170.43318 203.85156 171.69727 C 205.99999 172.96135 208.02185 174.27512 209.9082 175.63672 C 211.79456 176.99832 213.54575 178.40691 215.15234 179.85742 C 216.75894 181.30794 218.22211 182.8012 219.53125 184.33203 C 220.84039 185.86286 221.99624 187.43065 222.99023 189.0332 C 223.98423 190.63576 224.8154 192.27182 225.47656 193.9375 C 226.13773 195.60318 226.62881 197.29932 226.93945 199.01953 C 227.2501 200.73974 227.37983 202.48386 227.32227 204.25 C 227.2647 206.01614 227.02044 207.76227 226.59766 209.48242 C 226.24818 210.90435 225.70288 212.29649 225.11523 213.68164 C 225.14941 213.62702 225.17692 213.56839 225.21094 213.51367 z "
         id="path5074"
         transform="translate(-1.5e-6,5.95e-6)" />
      <path
         style="font-style:normal;font-variant:normal;font-weight:bold;font-stretch:normal;font-size:477.68392944px;font-family:Bahnschrift;-inkscape-font-specification:'Bahnschrift Bold';fill:url(#linearGradient854);fill-opacity:1;stroke-width:2.48793721"
         d="M 47.664062 35.150391 C 46.863109 36.440025 46.116971 37.739926 45.544922 39.072266 C 44.875197 40.632098 44.365673 42.219167 44.025391 43.830078 C 43.685108 45.440989 43.513442 47.076523 43.519531 48.730469 C 43.52562 50.384415 43.708403 52.017995 44.060547 53.628906 C 44.412691 55.239817 44.934024 56.826886 45.615234 58.386719 C 46.296445 59.946551 47.137572 61.479757 48.130859 62.980469 C 49.124147 64.48118 50.270217 65.949265 51.558594 67.382812 C 52.84697 68.81636 54.277273 70.215878 55.84375 71.574219 C 57.410227 72.932559 59.111865 74.2503 60.939453 75.525391 C 62.767041 76.800481 64.721258 78.032999 66.792969 79.216797 C 68.864679 80.400595 71.054672 81.536632 73.353516 82.621094 C 75.65236 83.705556 78.059485 84.737794 80.568359 85.714844 C 83.077234 86.691894 85.686802 87.613013 88.388672 88.474609 C 93.792412 90.197802 99.565158 91.681403 105.63867 92.894531 C 106.48528 93.063634 107.4368 93.124723 108.29492 93.283203 C 103.44577 92.206737 99.174427 90.762758 95.695312 88.814453 C 91.963407 86.482012 90.097656 83.294851 90.097656 79.251953 C 90.097656 73.965087 93.673354 69.84505 100.82617 66.890625 C 107.97899 63.9362 118.00984 62.458984 130.91602 62.458984 C 141.48975 62.458984 152.5304 64.092005 164.03711 67.357422 C 175.54382 70.622839 186.58252 75.208337 197.15625 81.117188 L 235.17578 34.703125 C 225.69052 28.17229 215.35002 22.573086 204.1543 17.908203 C 192.95858 13.243321 181.21779 9.6676244 168.93359 7.1796875 C 156.8049 4.6917504 144.59864 3.4472656 132.31445 3.4472656 C 111.32248 3.4472656 93.440094 6.4805751 78.667969 12.544922 C 65.498673 17.81264 55.272127 25.433687 47.664062 35.150391 z "
         id="path5072"
         transform="translate(-1.5e-6,5.95e-6)" />
      <path
         style="font-style:normal;font-variant:normal;font-weight:bold;font-stretch:normal;font-size:477.68392944px;font-family:Bahnschrift;-inkscape-font-specification:'Bahnschrift Bold';fill:#000000;fill-opacity:1;stroke-width:2.48793721"
         d="M 121.91602 95.28125 C 122.86897 95.387141 123.7303 95.59635 124.69336 95.689453 C 124.86436 95.705984 125.05135 95.698719 125.22266 95.714844 C 124.04357 95.565967 123.00502 95.424667 121.91602 95.28125 z "
         id="path5070"
         transform="translate(-1.5e-6,5.95e-6)" />
      <path
         style="font-style:normal;font-variant:normal;font-weight:bold;font-stretch:normal;font-size:477.68392944px;font-family:Bahnschrift;-inkscape-font-specification:'Bahnschrift Bold';fill:#000000;fill-opacity:1;stroke-width:2.48793721"
         d="M 119.91406 95.019531 C 121.54019 95.217246 123.03497 95.560599 124.69141 95.720703 C 124.9842 95.749003 125.30396 95.736566 125.59766 95.763672 C 125.4628 95.74672 125.35636 95.731726 125.22266 95.714844 C 125.05135 95.698719 124.86436 95.705984 124.69336 95.689453 C 123.7303 95.59635 122.86897 95.387141 121.91602 95.28125 C 121.25673 95.194425 120.54033 95.104356 119.91406 95.019531 z "
         id="path5068"
         transform="translate(-1.5e-6,5.95e-6)" />
      <path
         style="font-style:normal;font-variant:normal;font-weight:bold;font-stretch:normal;font-size:477.68392944px;font-family:Bahnschrift;-inkscape-font-specification:'Bahnschrift Bold';fill:url(#linearGradient862);fill-opacity:1;stroke-width:2.48793721"
         d="M 47.550781 35.291016 C 46.665082 36.428777 45.657446 37.46948 44.847656 38.667969 C 37.072853 50.174678 33.185547 64.013956 33.185547 80.185547 C 33.185547 98.689578 36.919001 112.83851 44.382812 122.63477 C 52.00212 132.27552 61.253947 138.8076 72.138672 142.22852 C 83.023397 145.64943 97.48394 148.52498 115.52148 150.85742 C 116.14347 150.85742 116.76474 150.9363 117.38672 151.0918 C 118.1642 151.0918 118.86434 151.16872 119.48633 151.32422 C 122.44075 151.63521 125.31826 151.94682 128.11719 152.25781 C 131.07161 152.56881 133.94717 152.87846 136.74609 153.18945 C 146.85334 154.12243 154.70683 155.2111 160.30469 156.45508 C 160.56793 156.50626 160.76467 156.613 161.02344 156.66797 C 161.75471 156.80713 162.52315 156.91196 163.24609 157.05859 C 166.43937 157.70626 169.55041 158.42667 172.57031 159.21484 C 175.59021 160.00302 178.51884 160.85918 181.34766 161.7793 C 184.17647 162.69942 186.90537 163.68306 189.52539 164.72656 C 192.14541 165.77006 194.65726 166.87293 197.05078 168.03125 C 199.4443 169.18957 201.71981 170.40336 203.86914 171.66797 C 206.01848 172.93258 208.04231 174.249 209.92969 175.61133 C 211.81707 176.97365 213.56813 178.38253 215.17578 179.83398 C 216.78343 181.28544 218.2465 182.77854 219.55664 184.31055 C 220.86678 185.84256 222.02467 187.4136 223.01953 189.01758 C 224.01439 190.62156 224.84601 192.25841 225.50781 193.92578 C 226.16962 195.59315 226.66169 197.29149 226.97266 199.01367 C 227.28363 200.73585 227.41311 202.48159 227.35547 204.25 C 227.29783 206.0184 227.05409 207.76616 226.63086 209.48828 C 226.2959 210.85122 225.76461 212.18452 225.21094 213.51367 C 232.38689 201.97109 236.10938 188.36938 236.10938 172.54883 C 236.10937 152.64533 231.91046 137.56352 223.51367 127.30078 C 215.27238 117.03804 205.24348 110.1963 193.42578 106.77539 C 181.60808 103.35448 166.29159 100.55585 147.47656 98.378906 C 146.85458 98.22341 146.15443 98.144531 145.37695 98.144531 C 144.59947 98.144531 143.89933 98.067605 143.27734 97.912109 L 139.07812 97.445312 L 134.88086 96.978516 C 130.83209 96.515799 128.93645 96.183359 125.59766 95.763672 C 125.30396 95.736566 124.9842 95.749003 124.69141 95.720703 C 123.03497 95.560599 121.54019 95.217246 119.91406 95.019531 C 116.7888 94.596234 112.22686 94.086356 109.92383 93.712891 C 109.4346 93.617764 109.04452 93.458909 108.56836 93.355469 C 107.61872 93.181594 106.56843 93.112641 105.63281 92.925781 C 99.5582 91.712577 93.783877 90.229361 88.378906 88.505859 C 85.676421 87.644109 83.066175 86.721428 80.556641 85.744141 C 78.047106 84.766854 75.6394 83.735188 73.339844 82.650391 C 71.040288 81.565593 68.849925 80.428459 66.777344 79.244141 C 64.704762 78.059822 62.750423 76.828547 60.921875 75.552734 C 59.093327 74.276922 57.38972 72.956937 55.822266 71.597656 C 54.254811 70.238376 52.822505 68.83902 51.533203 67.404297 C 50.243901 65.969574 49.097606 64.498233 48.103516 62.996094 C 47.109426 61.493954 46.267756 59.961921 45.585938 58.400391 C 44.904119 56.838861 44.381785 55.249613 44.029297 53.636719 C 43.676809 52.023824 43.494379 50.386702 43.488281 48.730469 C 43.482183 47.074236 43.653529 45.437113 43.994141 43.824219 C 44.334752 42.211324 44.845305 40.622077 45.515625 39.060547 C 46.0652 37.780297 46.789979 36.53183 47.550781 35.291016 z "
         id="path5066"
         transform="translate(-1.5e-6,5.95e-6)" />
      <path
         style="font-style:normal;font-variant:normal;font-weight:bold;font-stretch:normal;font-size:477.68392944px;font-family:Bahnschrift;-inkscape-font-specification:'Bahnschrift Bold';fill:#000000;fill-opacity:1;stroke-width:2.48793721"
         d="M 47.550781 35.291016 C 46.789979 36.53183 46.0652 37.780297 45.515625 39.060547 C 44.845305 40.622077 44.334752 42.211324 43.994141 43.824219 C 43.653529 45.437113 43.482183 47.074236 43.488281 48.730469 C 43.494379 50.386702 43.676809 52.023824 44.029297 53.636719 C 44.381785 55.249613 44.904119 56.838861 45.585938 58.400391 C 46.267756 59.961921 47.109426 61.493954 48.103516 62.996094 C 49.097606 64.498233 50.243901 65.969574 51.533203 67.404297 C 52.822505 68.83902 54.254811 70.238376 55.822266 71.597656 C 57.38972 72.956937 59.093327 74.276922 60.921875 75.552734 C 62.750423 76.828547 64.704762 78.059822 66.777344 79.244141 C 68.849925 80.428459 71.040288 81.565593 73.339844 82.650391 C 75.6394 83.735188 78.047106 84.766854 80.556641 85.744141 C 83.066175 86.721428 85.676421 87.644109 88.378906 88.505859 C 93.783877 90.229361 99.5582 91.712577 105.63281 92.925781 C 106.56843 93.112641 107.61872 93.181594 108.56836 93.355469 C 108.47229 93.334599 108.39046 93.304412 108.29492 93.283203 C 107.4368 93.124723 106.48528 93.063634 105.63867 92.894531 C 99.565158 91.681403 93.792412 90.197802 88.388672 88.474609 C 85.686802 87.613013 83.077234 86.691894 80.568359 85.714844 C 78.059485 84.737794 75.65236 83.705556 73.353516 82.621094 C 71.054672 81.536632 68.864679 80.400595 66.792969 79.216797 C 64.721258 78.032999 62.767041 76.800481 60.939453 75.525391 C 59.111865 74.2503 57.410227 72.932559 55.84375 71.574219 C 54.277273 70.215878 52.84697 68.81636 51.558594 67.382812 C 50.270217 65.949265 49.124147 64.48118 48.130859 62.980469 C 47.137572 61.479757 46.296445 59.946551 45.615234 58.386719 C 44.934024 56.826886 44.412691 55.239817 44.060547 53.628906 C 43.708403 52.017995 43.52562 50.384415 43.519531 48.730469 C 43.513442 47.076523 43.685108 45.440989 44.025391 43.830078 C 44.365673 42.219167 44.875197 40.632098 45.544922 39.072266 C 46.116971 37.739926 46.863109 36.440025 47.664062 35.150391 C 47.626956 35.197782 47.587756 35.243519 47.550781 35.291016 z "
         id="path4578"
         transform="translate(-1.5e-6,5.95e-6)" />
    </g>
    <ellipse
       style="fill:#000000;fill-opacity:0"
       id="path4581"
       cx="84"
       cy="-54.5"
       rx="91"
       ry="39.5" />
    <ellipse
       style="fill:#000000;fill-opacity:0"
       id="path4585"
       cx="151.5"
       cy="53.5"
       rx="100.5"
       ry="54.5" />
    <g
       id="g4999" />
  </g>
</svg>
